<?xml version="1.0" encoding="UTF-8"?><svg id="Layer_2" xmlns="http://www.w3.org/2000/svg" viewBox="0 0 154.5 43.56"><defs><style>.cls-1{fill:#7c7c7c;}.cls-2{fill:lime;}</style></defs><g id="Layer_1-2"><rect class="cls-2" width="43.56" height="43.56"/><path class="cls-2" d="M58.27,2.81h6.19v18.61h9.65v5.4h-15.84V2.81Z"/><path class="cls-2" d="M88.08,2.42c7.34,0,12.81,5.11,12.81,12.42s-5.47,12.42-12.81,12.42-12.85-5.11-12.85-12.42,5.51-12.42,12.85-12.42ZM88.08,7.89c-4,0-6.55,3.02-6.55,6.95s2.56,6.95,6.55,6.95,6.52-3.06,6.52-6.95-2.56-6.95-6.52-6.95Z"/><path class="cls-2" d="M115.8,2.42c5.26,0,8.5,2.59,10.26,5.58l-5.18,2.74c-.97-1.58-2.81-2.84-5.08-2.84-3.92,0-6.7,3.02-6.7,6.95s2.77,6.95,6.7,6.95c1.87,0,3.56-.65,4.54-1.44v-2.02h-5.51v-5.15h11.59v9.39c-2.59,2.84-6.08,4.68-10.62,4.68-7.16,0-12.99-4.79-12.99-12.42s5.83-12.42,12.99-12.42Z"/><path class="cls-2" d="M141.68,2.42c7.34,0,12.81,5.11,12.81,12.42s-5.47,12.42-12.81,12.42-12.85-5.11-12.85-12.42,5.51-12.42,12.85-12.42ZM141.68,7.89c-4,0-6.55,3.02-6.55,6.95s2.56,6.95,6.55,6.95,6.52-3.06,6.52-6.95-2.56-6.95-6.52-6.95Z"/><path class="cls-1" d="M58.27,33.86h3.78c1.32,0,1.95.86,1.95,1.7s-.51,1.39-1.14,1.53c.71.11,1.27.79,1.27,1.63,0,.97-.65,1.81-1.96,1.81h-3.9v-6.67ZM61.66,36.44c.35,0,.59-.25.59-.58s-.24-.57-.59-.57h-1.67v1.15h1.67ZM61.72,39.1c.41,0,.66-.25.66-.61,0-.34-.24-.63-.66-.63h-1.73v1.24h1.73Z"/><path class="cls-1" d="M68.29,39.95c-.3.34-.86.7-1.67.7-1.1,0-1.59-.62-1.59-1.51v-3.44h1.54v2.81c0,.58.3.78.8.78.44,0,.74-.24.92-.47v-3.12h1.54v4.83h-1.54v-.58Z"/><path class="cls-1" d="M71.18,38.85c.36.32,1.13.64,1.7.64.46,0,.65-.15.65-.36,0-.25-.33-.34-.83-.42-.82-.14-1.98-.31-1.98-1.54,0-.85.73-1.59,2.07-1.59.81,0,1.5.26,2.02.64l-.59,1.02c-.29-.28-.84-.53-1.42-.53-.36,0-.61.12-.61.33,0,.22.26.3.77.39.82.14,2.04.34,2.04,1.62,0,.92-.81,1.6-2.2,1.6-.86,0-1.75-.29-2.26-.74l.64-1.06Z"/><path class="cls-1" d="M75.68,34.33c0-.49.39-.88.88-.88s.88.39.88.88-.39.88-.88.88-.88-.39-.88-.88ZM75.79,35.7h1.54v4.83h-1.54v-4.83Z"/><path class="cls-1" d="M81.72,37.74c0-.59-.31-.8-.79-.8s-.76.25-.94.47v3.12h-1.54v-4.83h1.54v.59c.29-.34.86-.71,1.67-.71,1.1,0,1.6.64,1.6,1.53v3.42h-1.54v-2.79Z"/><path class="cls-1" d="M86.63,35.58c1.43,0,2.47,1.05,2.47,2.69v.33h-3.44c.09.45.51.86,1.23.86.43,0,.91-.17,1.18-.41l.65.96c-.48.43-1.28.64-2.02.64-1.49,0-2.64-.97-2.64-2.54,0-1.4,1.06-2.53,2.57-2.53ZM85.64,37.6h1.99c-.04-.34-.29-.83-1-.83-.67,0-.93.48-.99.83Z"/><path class="cls-1" d="M90.09,38.85c.36.32,1.13.64,1.7.64.46,0,.65-.15.65-.36,0-.25-.33-.34-.83-.42-.82-.14-1.98-.31-1.98-1.54,0-.85.73-1.59,2.07-1.59.81,0,1.5.26,2.02.64l-.59,1.02c-.29-.28-.84-.53-1.42-.53-.36,0-.61.12-.61.33,0,.22.26.3.77.39.82.14,2.04.34,2.04,1.62,0,.92-.81,1.6-2.2,1.6-.86,0-1.75-.29-2.26-.74l.64-1.06Z"/><path class="cls-1" d="M94.93,38.85c.36.32,1.13.64,1.7.64.46,0,.65-.15.65-.36,0-.25-.33-.34-.83-.42-.82-.14-1.98-.31-1.98-1.54,0-.85.73-1.59,2.07-1.59.81,0,1.5.26,2.02.64l-.59,1.02c-.29-.28-.84-.53-1.42-.53-.36,0-.61.12-.61.33,0,.22.26.3.77.39.82.14,2.04.34,2.04,1.62,0,.92-.81,1.6-2.2,1.6-.86,0-1.75-.29-2.26-.74l.64-1.06Z"/><path class="cls-1" d="M103.63,35.36h-1.87v-1.5h5.45v1.5h-1.86v5.17h-1.72v-5.17Z"/><path class="cls-1" d="M110.15,40.05c-.3.36-.88.6-1.5.6-.74,0-1.66-.5-1.66-1.59,0-1.17.92-1.52,1.66-1.52.64,0,1.21.2,1.5.56v-.61c0-.42-.36-.7-.98-.7-.48,0-.98.18-1.37.51l-.55-.97c.62-.53,1.45-.75,2.19-.75,1.16,0,2.25.43,2.25,1.93v3.02h-1.54v-.48ZM110.15,38.86c-.16-.22-.52-.34-.86-.34-.41,0-.77.18-.77.56s.36.56.77.56c.34,0,.7-.12.86-.35v-.43Z"/><path class="cls-1" d="M113.35,40.67c.37.4.91.56,1.47.56.51,0,1.23-.21,1.23-1.11v-.37c-.4.47-.88.7-1.43.7-1.18,0-2.13-.81-2.13-2.44s.92-2.43,2.13-2.43c.54,0,1.04.21,1.43.69v-.57h1.53v4.4c0,1.97-1.56,2.39-2.76,2.39-.83,0-1.52-.21-2.14-.72l.67-1.1ZM116.05,37.37c-.19-.26-.6-.43-.92-.43-.61,0-1.06.37-1.06,1.07s.45,1.08,1.06,1.08c.32,0,.73-.17.92-.43v-1.29Z"/><path class="cls-1" d="M118.71,33.86h1.54v6.67h-1.54v-6.67Z"/><path class="cls-1" d="M121.26,34.33c0-.49.39-.88.88-.88s.88.39.88.88-.39.88-.88.88-.88-.39-.88-.88ZM121.37,35.7h1.54v4.83h-1.54v-4.83Z"/><path class="cls-1" d="M127.3,37.74c0-.59-.31-.8-.79-.8s-.76.25-.94.47v3.12h-1.54v-4.83h1.54v.59c.29-.34.86-.71,1.67-.71,1.1,0,1.6.64,1.6,1.53v3.42h-1.54v-2.79Z"/><path class="cls-1" d="M132.21,35.58c1.43,0,2.47,1.05,2.47,2.69v.33h-3.44c.09.45.51.86,1.23.86.43,0,.91-.17,1.18-.41l.65.96c-.48.43-1.28.64-2.02.64-1.49,0-2.64-.97-2.64-2.54,0-1.4,1.06-2.53,2.57-2.53ZM131.22,37.6h1.99c-.04-.34-.29-.83-1-.83-.67,0-.93.48-.99.83Z"/></g></svg>