<svg width="11" height="6" viewBox="0 0 11 6" fill="none" xmlns="http://www.w3.org/2000/svg">
<path id="arrow-down" d="M5.91583 5.91589C5.83567 5.91589 5.74549 5.87581 5.68537 5.81569L1.01603 1.14635C0.955913 1.08623 0.915833 0.996052 0.915833 0.915891C0.915833 0.835731 0.955913 0.745551 1.01603 0.68543L1.51704 0.184428C1.57716 0.124308 1.65732 0.0842281 1.7475 0.0842281C1.82766 0.0842281 1.91784 0.124308 1.97796 0.184429L5.91583 4.1223L9.85371 0.184429C9.91383 0.124309 10.004 0.0842285 10.0842 0.0842285C10.1643 0.0842285 10.2545 0.124309 10.3146 0.184429L10.8156 0.685431C10.8758 0.745551 10.9158 0.835731 10.9158 0.915892C10.9158 0.996052 10.8758 1.08623 10.8156 1.14635L6.14629 5.81569C6.08617 5.87581 5.99599 5.91589 5.91583 5.91589Z" fill="#966A3A"/>
</svg>
