<svg width="6" height="10" viewBox="0 0 6 10" fill="none" xmlns="http://www.w3.org/2000/svg">
<path id="arrow" d="M5.83166 5C5.83166 5.08016 5.79158 5.17034 5.73146 5.23046L1.06212 9.8998C1.002 9.95992 0.911823 10 0.831663 10C0.751503 10 0.661323 9.95992 0.601202 9.8998L0.1002 9.3988C0.0400802 9.33868 0 9.25852 0 9.16834C0 9.08818 0.0400802 8.998 0.1002 8.93788L4.03808 5L0.1002 1.06213C0.0400802 1.002 0 0.911824 0 0.831664C0 0.751504 0.0400802 0.661323 0.1002 0.601203L0.601202 0.1002C0.661323 0.040081 0.751503 0 0.831663 0C0.911823 0 1.002 0.040081 1.06212 0.1002L5.73146 4.76954C5.79158 4.82966 5.83166 4.91984 5.83166 5Z" fill="#966A3A"/>
</svg>
