<svg width="11" height="6" viewBox="0 0 11 6" fill="none" xmlns="http://www.w3.org/2000/svg">
<path id="arrow-down-wht" d="M5.91583 5.83166C5.83567 5.83166 5.74549 5.79158 5.68537 5.73146L1.01603 1.06212C0.955913 1.002 0.915833 0.911823 0.915833 0.831663C0.915833 0.751502 0.955913 0.661322 1.01603 0.601202L1.51704 0.1002C1.57716 0.0400798 1.65732 -4.04703e-07 1.7475 -4.00761e-07C1.82766 -3.97257e-07 1.91784 0.0400798 1.97796 0.1002L5.91583 4.03808L9.85371 0.1002C9.91383 0.0400801 10.004 -3.98571e-08 10.0842 -3.63532e-08C10.1643 -3.28493e-08 10.2545 0.0400801 10.3146 0.1002L10.8156 0.601202C10.8758 0.661323 10.9158 0.751503 10.9158 0.831663C10.9158 0.911823 10.8758 1.002 10.8156 1.06212L6.14629 5.73146C6.08617 5.79158 5.99599 5.83166 5.91583 5.83166Z" fill="white"/>
</svg>
