<svg width="165" height="206" viewBox="0 0 165 206" fill="none" xmlns="http://www.w3.org/2000/svg">
<g clip-path="url(#clip0_9_133)">
<path d="M82.3333 160.325C125.163 160.325 159.883 125.605 159.883 82.775C159.883 39.945 125.163 5.22504 82.3333 5.22504C39.5033 5.22504 4.78326 39.945 4.78326 82.775C4.78326 125.605 39.5033 160.325 82.3333 160.325Z" fill="white"/>
<path fill-rule="evenodd" clip-rule="evenodd" d="M0.463257 82.775C0.463257 37.6321 37.1903 0.905029 82.3333 0.905029C127.476 0.905029 164.203 37.6321 164.203 82.775C164.203 127.918 127.476 164.645 82.3333 164.645C37.1903 164.645 0.463257 127.918 0.463257 82.775ZM82.3333 5.22503C39.5762 5.22503 4.78326 40.018 4.78326 82.775C4.78326 125.532 39.5762 160.325 82.3333 160.325C125.09 160.325 159.883 125.532 159.883 82.775C159.883 40.018 125.09 5.22503 82.3333 5.22503Z" fill="#322A2A"/>
<path fill-rule="evenodd" clip-rule="evenodd" d="M7.66326 82.775C7.66326 41.5974 41.1556 8.10503 82.3333 8.10503C123.511 8.10503 157.003 41.5974 157.003 82.775C157.003 123.953 123.511 157.445 82.3333 157.445C41.1556 157.445 7.66326 123.953 7.66326 82.775ZM82.3333 9.54503C41.9509 9.54503 9.10326 42.3927 9.10326 82.775C9.10326 123.157 41.9509 156.005 82.3333 156.005C122.716 156.005 155.563 123.157 155.563 82.775C155.563 42.3927 122.716 9.54503 82.3333 9.54503Z" fill="#322A2A"/>
<path d="M30.5833 180.455C30.5833 177.535 32.7333 175.535 35.4333 175.535C37.1533 175.535 38.3233 176.345 39.0833 177.415L38.0833 177.975C37.5433 177.175 36.5633 176.595 35.4333 176.595C33.3933 176.595 31.8133 178.195 31.8133 180.455C31.8133 182.715 33.3933 184.315 35.4333 184.315C36.5633 184.315 37.5433 183.745 38.0833 182.935L39.0933 183.495C38.2933 184.575 37.1533 185.375 35.4333 185.375C32.7433 185.375 30.5833 183.375 30.5833 180.455Z" fill="#322A2A"/>
<path d="M43.6033 178.145C45.6833 178.145 46.9133 179.765 46.9133 181.835V182.105H41.3433C41.4333 183.405 42.3433 184.485 43.8233 184.485C44.6033 184.485 45.4033 184.175 45.9433 183.615L46.4533 184.315C45.7733 184.995 44.8433 185.365 43.7133 185.365C41.6733 185.365 40.2033 183.895 40.2033 181.745C40.2033 179.745 41.6333 178.135 43.5933 178.135L43.6033 178.145ZM41.3333 181.325H45.8533C45.8433 180.295 45.1533 179.035 43.5833 179.035C42.1133 179.035 41.3933 180.275 41.3333 181.325Z" fill="#322A2A"/>
<path d="M48.6833 185.195V175.685H49.7533V185.195H48.6833Z" fill="#322A2A"/>
<path d="M54.9233 178.145C57.0033 178.145 58.2333 179.765 58.2333 181.835V182.105H52.6633C52.7533 183.405 53.6633 184.485 55.1433 184.485C55.9233 184.485 56.7233 184.175 57.2633 183.615L57.7733 184.315C57.0933 184.995 56.1633 185.365 55.0333 185.365C52.9933 185.365 51.5233 183.895 51.5233 181.745C51.5233 179.745 52.9533 178.135 54.9133 178.135L54.9233 178.145ZM52.6533 181.325H57.1733C57.1633 180.295 56.4733 179.035 54.9033 179.035C53.4333 179.035 52.7133 180.275 52.6533 181.325Z" fill="#322A2A"/>
<path d="M60.0033 185.195V175.685H61.0733V179.345C61.6333 178.585 62.4533 178.135 63.3933 178.135C65.1933 178.135 66.4533 179.555 66.4533 181.755C66.4533 183.955 65.1833 185.365 63.3933 185.365C62.4233 185.365 61.5833 184.865 61.0733 184.165V185.195H60.0033ZM61.0733 183.325C61.4433 183.925 62.2833 184.405 63.1233 184.405C64.5233 184.405 65.3433 183.275 65.3433 181.755C65.3433 180.235 64.5133 179.085 63.1233 179.085C62.2833 179.085 61.4433 179.595 61.0733 180.195V183.325Z" fill="#322A2A"/>
<path d="M68.2233 185.195V178.315H69.2933V179.425C69.8533 178.695 70.6433 178.175 71.5833 178.175V179.275C71.4533 179.245 71.3233 179.235 71.1533 179.235C70.4933 179.235 69.6033 179.775 69.2833 180.335V185.205H68.2133L68.2233 185.195Z" fill="#322A2A"/>
<path d="M77.2733 185.195V184.415C76.7033 185.045 75.9233 185.375 74.9933 185.375C73.8233 185.375 72.5833 184.595 72.5833 183.095C72.5833 181.595 73.8233 180.825 74.9933 180.825C75.9333 180.825 76.7133 181.125 77.2733 181.765V180.525C77.2733 179.595 76.5333 179.075 75.5333 179.075C74.7033 179.075 74.0333 179.375 73.4233 180.025L72.9233 179.285C73.6633 178.515 74.5433 178.145 75.6733 178.145C77.1233 178.145 78.3433 178.805 78.3433 180.465V185.195H77.2733ZM77.2733 182.445C76.8633 181.875 76.1333 181.595 75.3733 181.595C74.3733 181.595 73.6733 182.225 73.6733 183.105C73.6733 183.985 74.3733 184.605 75.3733 184.605C76.1333 184.605 76.8533 184.315 77.2733 183.745V182.445Z" fill="#322A2A"/>
<path d="M80.7433 183.755V179.255H79.6033V178.315H80.7433V176.435H81.8133V178.315H83.2133V179.255H81.8133V183.535C81.8133 184.045 82.0433 184.415 82.5133 184.415C82.8133 184.415 83.0933 184.285 83.2433 184.125L83.5533 184.925C83.2833 185.185 82.8933 185.365 82.2733 185.365C81.2633 185.365 80.7433 184.785 80.7433 183.755Z" fill="#322A2A"/>
<path d="M84.5733 176.435C84.5733 176.035 84.9033 175.725 85.2833 175.725C85.6633 175.725 86.0133 176.035 86.0133 176.435C86.0133 176.835 85.6833 177.165 85.2833 177.165C84.8833 177.165 84.5733 176.835 84.5733 176.435ZM84.7633 185.195V178.315H85.8333V185.195H84.7633Z" fill="#322A2A"/>
<path d="M92.6633 185.195V180.695C92.6633 179.485 92.0533 179.095 91.1233 179.095C90.2833 179.095 89.4833 179.605 89.0833 180.165V185.195H88.0133V178.315H89.0833V179.315C89.5633 178.745 90.5033 178.145 91.5333 178.145C92.9733 178.145 93.7233 178.875 93.7233 180.365V185.195H92.6533H92.6633Z" fill="#322A2A"/>
<path d="M96.4233 186.165C96.9933 186.845 97.6733 187.105 98.6633 187.105C99.8033 187.105 100.873 186.545 100.873 185.035V184.055C100.373 184.755 99.5333 185.285 98.5633 185.285C96.7633 185.285 95.5033 183.945 95.5033 181.725C95.5033 179.505 96.7533 178.145 98.5633 178.145C99.4933 178.145 100.313 178.605 100.873 179.355V178.315H101.943V184.995C101.943 187.275 100.343 187.985 98.6633 187.985C97.4933 187.985 96.6933 187.755 95.8833 186.955L96.4233 186.155V186.165ZM100.873 180.205C100.503 179.605 99.6733 179.095 98.8233 179.095C97.4433 179.095 96.6133 180.195 96.6133 181.715C96.6133 183.235 97.4433 184.335 98.8233 184.335C99.6733 184.335 100.503 183.805 100.873 183.205V180.195V180.205Z" fill="#322A2A"/>
<path d="M107.433 181.745C107.433 179.745 108.743 178.135 110.843 178.135C112.943 178.135 114.253 179.745 114.253 181.745C114.253 183.745 112.943 185.365 110.843 185.365C108.743 185.365 107.433 183.745 107.433 181.745ZM113.123 181.745C113.123 180.345 112.313 179.095 110.843 179.095C109.373 179.095 108.553 180.345 108.553 181.745C108.553 183.145 109.383 184.415 110.843 184.415C112.303 184.415 113.123 183.165 113.123 181.745Z" fill="#322A2A"/>
<path d="M117.863 185.195L115.003 178.315H116.153L118.443 183.955L120.723 178.315H121.893L119.033 185.195H117.863Z" fill="#322A2A"/>
<path d="M126.053 178.145C128.133 178.145 129.363 179.765 129.363 181.835V182.105H123.793C123.883 183.405 124.793 184.485 126.273 184.485C127.053 184.485 127.853 184.175 128.393 183.615L128.903 184.315C128.223 184.995 127.293 185.365 126.163 185.365C124.123 185.365 122.653 183.895 122.653 181.745C122.653 179.745 124.083 178.135 126.043 178.135L126.053 178.145ZM123.783 181.325H128.303C128.293 180.295 127.603 179.035 126.033 179.035C124.563 179.035 123.833 180.275 123.783 181.325Z" fill="#322A2A"/>
<path d="M131.123 185.195V178.315H132.193V179.425C132.753 178.695 133.543 178.175 134.483 178.175V179.275C134.353 179.245 134.223 179.235 134.053 179.235C133.393 179.235 132.503 179.775 132.183 180.335V185.205H131.113L131.123 185.195Z" fill="#322A2A"/>
<path d="M18.7533 202.305V194.365L17.2333 195.975L16.5233 195.245L18.9033 192.795H19.9433V202.305H18.7533Z" fill="#322A2A"/>
<path d="M25.4533 192.655C28.0433 192.655 29.0833 195.235 29.0833 197.555C29.0833 199.875 28.0433 202.475 25.4533 202.475C22.8633 202.475 21.8233 199.865 21.8233 197.555C21.8233 195.245 22.8533 192.655 25.4533 192.655ZM25.4533 193.715C23.6433 193.715 23.0333 195.665 23.0333 197.565C23.0333 199.465 23.6433 201.425 25.4533 201.425C27.2633 201.425 27.8733 199.455 27.8733 197.565C27.8733 195.675 27.2633 193.715 25.4533 193.715Z" fill="#322A2A"/>
<path d="M34.2233 192.655C36.8133 192.655 37.8533 195.235 37.8533 197.555C37.8533 199.875 36.8133 202.475 34.2233 202.475C31.6333 202.475 30.5933 199.865 30.5933 197.555C30.5933 195.245 31.6233 192.655 34.2233 192.655ZM34.2233 193.715C32.4133 193.715 31.8033 195.665 31.8033 197.565C31.8033 199.465 32.4133 201.425 34.2233 201.425C36.0333 201.425 36.6433 199.455 36.6433 197.565C36.6433 195.675 36.0333 193.715 34.2233 193.715Z" fill="#322A2A"/>
<path d="M43.1733 204.035C43.3333 204.105 43.5833 204.145 43.7533 204.145C44.2233 204.145 44.5333 203.985 44.7833 203.415L45.2433 202.375L42.3633 195.415H43.5133L45.8033 201.055L48.0833 195.415H49.2533L45.8033 203.695C45.3933 204.695 44.6933 205.075 43.7833 205.095C43.5533 205.095 43.2033 205.055 43.0033 204.995L43.1733 204.025V204.035Z" fill="#322A2A"/>
<path d="M53.4133 195.255C55.4933 195.255 56.7233 196.875 56.7233 198.945V199.215H51.1533C51.2433 200.515 52.1533 201.595 53.6333 201.595C54.4133 201.595 55.2133 201.285 55.7533 200.725L56.2633 201.425C55.5833 202.105 54.6533 202.475 53.5233 202.475C51.4833 202.475 50.0133 201.005 50.0133 198.855C50.0133 196.855 51.4433 195.245 53.4033 195.245L53.4133 195.255ZM51.1433 198.425H55.6633C55.6533 197.395 54.9633 196.135 53.3933 196.135C51.9233 196.135 51.2033 197.375 51.1433 198.425Z" fill="#322A2A"/>
<path d="M62.7933 202.305V201.525C62.2233 202.155 61.4433 202.485 60.5133 202.485C59.3433 202.485 58.1033 201.705 58.1033 200.205C58.1033 198.705 59.3433 197.935 60.5133 197.935C61.4533 197.935 62.2333 198.235 62.7933 198.875V197.635C62.7933 196.705 62.0533 196.185 61.0533 196.185C60.2233 196.185 59.5533 196.485 58.9433 197.135L58.4433 196.395C59.1833 195.625 60.0633 195.255 61.1933 195.255C62.6433 195.255 63.8633 195.915 63.8633 197.575V202.305H62.7933ZM62.7933 199.555C62.3833 198.985 61.6533 198.705 60.8933 198.705C59.8933 198.705 59.1933 199.335 59.1933 200.215C59.1933 201.095 59.8933 201.715 60.8933 201.715C61.6533 201.715 62.3733 201.425 62.7933 200.855V199.555Z" fill="#322A2A"/>
<path d="M66.0433 202.305V195.425H67.1133V196.535C67.6733 195.805 68.4633 195.285 69.4033 195.285V196.385C69.2733 196.355 69.1433 196.345 68.9733 196.345C68.3133 196.345 67.4233 196.885 67.1033 197.445V202.315H66.0333L66.0433 202.305Z" fill="#322A2A"/>
<path d="M70.7533 200.625C71.2133 201.155 72.0833 201.605 73.0233 201.605C74.0733 201.605 74.6433 201.135 74.6433 200.465C74.6433 199.715 73.8033 199.465 72.8733 199.235C71.7033 198.965 70.3833 198.655 70.3833 197.225C70.3833 196.155 71.3133 195.245 72.9433 195.245C74.1133 195.245 74.9433 195.685 75.4933 196.245L74.9933 196.985C74.5833 196.485 73.8233 196.115 72.9433 196.115C72.0033 196.115 71.4233 196.545 71.4233 197.155C71.4233 197.825 72.2033 198.035 73.1033 198.255C74.3033 198.525 75.6833 198.865 75.6833 200.395C75.6833 201.555 74.7533 202.475 72.9733 202.475C71.8433 202.475 70.8933 202.135 70.1933 201.395L70.7533 200.625Z" fill="#322A2A"/>
<path d="M80.9833 193.545C80.9833 193.145 81.3133 192.835 81.6933 192.835C82.0733 192.835 82.4233 193.145 82.4233 193.545C82.4233 193.945 82.0933 194.275 81.6933 194.275C81.2933 194.275 80.9833 193.945 80.9833 193.545ZM81.1733 202.305V195.425H82.2433V202.305H81.1733Z" fill="#322A2A"/>
<path d="M89.0633 202.305V197.805C89.0633 196.595 88.4533 196.205 87.5233 196.205C86.6833 196.205 85.8833 196.715 85.4833 197.275V202.305H84.4133V195.425H85.4833V196.425C85.9733 195.855 86.9133 195.255 87.9333 195.255C89.3733 195.255 90.1333 195.985 90.1333 197.475V202.305H89.0633Z" fill="#322A2A"/>
<path d="M97.0933 204.925H96.0233V195.415H97.0933V196.445C97.5933 195.745 98.4433 195.245 99.4133 195.245C101.223 195.245 102.473 196.615 102.473 198.855C102.473 201.095 101.223 202.475 99.4133 202.475C98.4733 202.475 97.6433 202.035 97.0933 201.265V204.925ZM99.1433 196.205C98.3033 196.205 97.4633 196.705 97.0933 197.305V200.415C97.4633 201.015 98.3033 201.525 99.1433 201.525C100.523 201.525 101.353 200.385 101.353 198.855C101.353 197.325 100.523 196.205 99.1433 196.205Z" fill="#322A2A"/>
<path d="M104.253 202.305V195.425H105.323V196.535C105.883 195.805 106.673 195.285 107.613 195.285V196.385C107.483 196.355 107.353 196.345 107.183 196.345C106.523 196.345 105.633 196.885 105.313 197.445V202.315H104.243L104.253 202.305Z" fill="#322A2A"/>
<path d="M108.603 198.855C108.603 196.855 109.913 195.245 112.013 195.245C114.113 195.245 115.423 196.855 115.423 198.855C115.423 200.855 114.113 202.475 112.013 202.475C109.913 202.475 108.603 200.855 108.603 198.855ZM114.283 198.855C114.283 197.455 113.473 196.205 112.003 196.205C110.533 196.205 109.713 197.455 109.713 198.855C109.713 200.255 110.543 201.525 112.003 201.525C113.463 201.525 114.283 200.275 114.283 198.855Z" fill="#322A2A"/>
<path d="M118.263 204.925H117.193V195.415H118.263V196.445C118.763 195.745 119.613 195.245 120.583 195.245C122.393 195.245 123.643 196.615 123.643 198.855C123.643 201.095 122.393 202.475 120.583 202.475C119.643 202.475 118.813 202.035 118.263 201.265V204.925ZM120.323 196.205C119.483 196.205 118.643 196.705 118.273 197.305V200.415C118.643 201.015 119.483 201.525 120.323 201.525C121.703 201.525 122.533 200.385 122.533 198.855C122.533 197.325 121.703 196.205 120.323 196.205Z" fill="#322A2A"/>
<path d="M128.413 195.255C130.493 195.255 131.723 196.875 131.723 198.945V199.215H126.153C126.243 200.515 127.153 201.595 128.633 201.595C129.413 201.595 130.213 201.285 130.753 200.725L131.263 201.425C130.583 202.105 129.653 202.475 128.523 202.475C126.483 202.475 125.013 201.005 125.013 198.855C125.013 196.855 126.443 195.245 128.403 195.245L128.413 195.255ZM126.153 198.425H130.673C130.663 197.395 129.973 196.135 128.403 196.135C126.933 196.135 126.203 197.375 126.153 198.425Z" fill="#322A2A"/>
<path d="M133.493 202.305V195.425H134.563V196.535C135.123 195.805 135.913 195.285 136.853 195.285V196.385C136.723 196.355 136.593 196.345 136.423 196.345C135.763 196.345 134.873 196.885 134.553 197.445V202.315H133.483L133.493 202.305Z" fill="#322A2A"/>
<path d="M138.453 200.865V196.365H137.313V195.425H138.453V193.545H139.523V195.425H140.923V196.365H139.523V200.645C139.523 201.155 139.753 201.525 140.223 201.525C140.523 201.525 140.803 201.395 140.953 201.235L141.263 202.035C140.993 202.295 140.603 202.475 139.983 202.475C138.973 202.475 138.463 201.895 138.463 200.865H138.453Z" fill="#322A2A"/>
<path d="M142.263 204.035C142.423 204.105 142.673 204.145 142.843 204.145C143.313 204.145 143.623 203.985 143.873 203.415L144.333 202.375L141.453 195.415H142.603L144.893 201.055L147.173 195.415H148.343L144.893 203.695C144.483 204.695 143.783 205.075 142.873 205.095C142.643 205.095 142.293 205.055 142.093 204.995L142.263 204.025V204.035Z" fill="#322A2A"/>
<path d="M38.1733 87.785V86.675L44.4033 83.905V48.795L32.2833 54.885V52.465L48.9033 42.075H50.2933V83.905L55.8333 86.675V87.785H38.1733Z" fill="#322A2A"/>
<path d="M79.5233 88.475C74.7233 88.475 71.0133 86.375 68.4033 82.175C65.7933 77.975 64.4933 72.225 64.4933 64.925C64.4933 60.395 65.1233 56.375 66.3933 52.835C67.6633 49.305 69.4333 46.505 71.6933 44.455C73.9533 42.405 76.5633 41.375 79.5233 41.375C84.3233 41.375 88.0333 43.475 90.6433 47.675C93.2533 51.875 94.5533 57.625 94.5533 64.925C94.5533 69.455 93.9033 73.475 92.6133 77.015C91.3233 80.545 89.5533 83.345 87.3133 85.395C85.0733 87.455 82.4733 88.475 79.5233 88.475ZM80.9833 85.225C82.5033 85.225 83.8033 84.435 84.8633 82.865C85.9233 81.295 86.7433 79.135 87.3233 76.385C87.9033 73.635 88.1933 70.535 88.1933 67.065C88.1933 60.095 87.3733 54.595 85.7333 50.585C84.0933 46.565 81.6333 44.555 78.3533 44.555C76.7833 44.555 75.4433 45.345 74.3333 46.915C73.2233 48.485 72.3733 50.635 71.7733 53.355C71.1733 56.085 70.8733 59.175 70.8733 62.635C70.8733 69.605 71.7133 75.115 73.4033 79.155C75.0933 83.195 77.6133 85.215 80.9833 85.215V85.225Z" fill="#322A2A"/>
<path d="M114.153 88.475C109.353 88.475 105.643 86.375 103.033 82.175C100.423 77.975 99.1233 72.225 99.1233 64.925C99.1233 60.395 99.7533 56.375 101.023 52.835C102.293 49.305 104.063 46.505 106.323 44.455C108.583 42.405 111.193 41.375 114.153 41.375C118.953 41.375 122.663 43.475 125.273 47.675C127.883 51.875 129.183 57.625 129.183 64.925C129.183 69.455 128.533 73.475 127.243 77.015C125.953 80.545 124.183 83.345 121.943 85.395C119.703 87.455 117.103 88.475 114.153 88.475ZM115.613 85.225C117.133 85.225 118.433 84.435 119.493 82.865C120.553 81.295 121.373 79.135 121.953 76.385C122.533 73.635 122.823 70.535 122.823 67.065C122.823 60.095 122.003 54.595 120.363 50.585C118.723 46.565 116.263 44.555 112.983 44.555C111.413 44.555 110.073 45.345 108.963 46.915C107.853 48.485 107.003 50.635 106.403 53.355C105.803 56.085 105.503 59.175 105.503 62.635C105.503 69.605 106.343 75.115 108.033 79.155C109.723 83.195 112.243 85.215 115.613 85.215V85.225Z" fill="#322A2A"/>
<path d="M40.6633 122.005V121.385L44.1633 119.825V110.025L35.5333 98.245L33.1633 96.965V96.345H42.5733V96.965L39.7333 98.325V98.485L46.6933 107.935L52.9533 98.525V98.365L50.1133 96.965V96.345H58.3533V96.965L55.8633 98.245L47.6633 109.985V119.825L51.1633 121.385V122.005H40.6633Z" fill="#322A2A"/>
<path d="M67.1033 122.395C64.5933 122.395 62.6033 121.635 61.1533 120.105C59.7033 118.575 58.9733 116.555 58.9733 114.035C58.9733 112.095 59.3533 110.375 60.1233 108.885C60.8833 107.395 61.8933 106.225 63.1533 105.385C64.4133 104.545 65.7733 104.125 67.2533 104.125C69.3033 104.125 70.9133 104.835 72.0933 106.265C73.2733 107.695 73.8633 109.735 73.8633 112.405L73.6733 112.595H62.0433C62.0733 113.785 62.3033 114.905 62.7433 115.955C63.1833 117.005 63.8933 117.855 64.8633 118.505C65.8333 119.155 67.1333 119.475 68.7733 119.475C70.2033 119.475 71.8733 118.955 73.7933 117.915H73.9133V118.305C73.3133 119.425 72.4333 120.375 71.2533 121.185C70.0733 121.985 68.6933 122.395 67.1133 122.395H67.1033ZM66.6333 105.825C65.3933 105.825 64.3733 106.255 63.5833 107.125C62.7933 107.995 62.3033 109.215 62.1233 110.795H70.9133C70.6233 109.035 70.1333 107.765 69.4133 106.985C68.7033 106.205 67.7733 105.815 66.6333 105.815V105.825Z" fill="#322A2A"/>
<path d="M82.0733 122.395C80.8533 122.395 79.8433 122.035 79.0433 121.325C78.2433 120.615 77.8333 119.625 77.8333 118.355C77.8333 117.085 78.3033 115.985 79.2533 115.055C80.2033 114.125 81.7833 113.395 84.0133 112.875L87.7033 112.015V109.175C87.7033 108.295 87.3433 107.535 86.6333 106.895C85.9233 106.265 85.1133 105.945 84.2033 105.945C83.2133 105.945 82.5333 106.215 82.1433 106.745C81.7533 107.275 81.5633 107.985 81.5633 108.865V109.955L81.3733 110.145H79.3533C78.9633 110.145 78.7033 110.085 78.5533 109.955C78.4133 109.825 78.3433 109.525 78.3433 109.065C78.3433 108.495 78.5133 107.915 78.8533 107.315C79.1933 106.715 79.7133 106.205 80.4033 105.765C81.1333 105.295 81.8833 104.905 82.6833 104.595C83.4733 104.285 84.3233 104.125 85.2333 104.125C86.1433 104.125 87.0233 104.255 87.8933 104.515C88.7633 104.775 89.4733 105.205 90.0133 105.815C90.5533 106.425 90.8333 107.275 90.8333 108.365V119.405C91.0133 119.585 91.2733 119.745 91.6133 119.875C91.9533 120.005 92.4133 120.065 93.0133 120.065H94.4933L94.6133 120.145V120.265C94.3033 120.835 93.8433 121.335 93.2333 121.765C92.6233 122.195 91.8833 122.405 90.9933 122.405C90.1933 122.405 89.5333 122.195 89.0333 121.765C88.5233 121.335 88.1733 120.775 87.9633 120.075H87.7333C87.0633 120.745 86.2233 121.305 85.2233 121.745C84.2233 122.185 83.1833 122.405 82.0933 122.405L82.0733 122.395ZM80.8633 117.575C80.8633 119.185 81.8333 119.985 83.7833 119.985C84.4033 119.985 85.0233 119.925 85.6333 119.785C86.2433 119.655 86.9333 119.425 87.7133 119.085V113.335C85.6433 113.725 84.1233 114.135 83.1633 114.555C82.2033 114.975 81.5833 115.445 81.2933 115.935C81.0033 116.425 80.8633 116.975 80.8633 117.565V117.575Z" fill="#322A2A"/>
<path d="M97.0433 122.005V121.385L99.4933 120.145V108.555L97.1633 106.535V106.265L101.983 104.125H102.213L102.563 107.425H102.723C103.323 106.465 103.873 105.745 104.373 105.265C104.873 104.785 105.353 104.475 105.793 104.335C106.233 104.195 106.673 104.125 107.113 104.125C107.323 104.125 107.563 104.165 107.833 104.245C108.103 104.325 108.333 104.405 108.513 104.475C108.803 104.605 109.063 104.765 109.313 104.945C109.563 105.125 109.683 105.335 109.683 105.565C109.683 105.795 109.633 106.035 109.523 106.265L108.743 108.175H108.473L106.993 107.595C106.703 107.465 106.433 107.385 106.153 107.365C105.883 107.335 105.613 107.325 105.353 107.325C104.263 107.325 103.343 107.885 102.593 108.995V120.155L105.353 121.395V122.015H97.0333L97.0433 122.005Z" fill="#322A2A"/>
<path d="M118.733 122.395C117.513 122.395 116.463 122.295 115.583 122.085C114.703 121.875 113.803 121.545 112.903 121.075V116.725H113.443L114.683 118.865C115.483 120.295 116.793 121.005 118.613 121.005C119.653 121.005 120.463 120.755 121.043 120.265C121.623 119.775 121.923 119.095 121.923 118.245C121.923 117.495 121.743 116.915 121.383 116.495C121.023 116.085 120.503 115.715 119.843 115.385C119.183 115.065 118.393 114.695 117.493 114.275C116.173 113.675 115.153 113.025 114.443 112.315C113.733 111.605 113.373 110.595 113.373 109.305C113.373 108.345 113.643 107.475 114.193 106.695C114.733 105.915 115.433 105.295 116.273 104.825C117.113 104.355 117.993 104.125 118.893 104.125C119.853 104.125 120.733 104.245 121.533 104.475C122.333 104.705 123.153 105.035 123.983 105.445V109.685H123.443L122.163 107.625C121.723 106.925 121.243 106.415 120.723 106.105C120.203 105.795 119.643 105.635 119.053 105.635C118.173 105.635 117.463 105.855 116.933 106.295C116.403 106.735 116.133 107.345 116.133 108.125C116.133 109.005 116.453 109.675 117.083 110.125C117.713 110.575 118.643 111.095 119.863 111.665C120.593 112.025 121.323 112.395 122.063 112.755C122.803 113.115 123.413 113.635 123.893 114.295C124.373 114.955 124.613 115.895 124.613 117.115C124.613 118.255 124.303 119.225 123.683 120.015C123.063 120.805 122.293 121.405 121.393 121.805C120.483 122.205 119.603 122.405 118.753 122.405L118.733 122.395Z" fill="#322A2A"/>
</g>
<defs>
<clipPath id="clip0_9_133">
<rect width="163.74" height="204.19" fill="white" transform="translate(0.463257 0.905029)"/>
</clipPath>
</defs>
</svg>
