<svg width="353" height="167" viewBox="0 0 353 167" fill="none" xmlns="http://www.w3.org/2000/svg">
<path d="M141.761 38V37.2L146.761 35.2V7.75H138.611L135.211 15.1H134.411V5H163.611V15.1H162.811L159.411 7.75H151.261V35.2L156.261 37.2V38H141.761Z" fill="#312A2A"/>
<path d="M168.252 38V37.2L171.402 35.6V6.2L168.402 3.6V3.25L175.102 0.5H175.402V18.7H175.602C176.869 17.4333 178.086 16.5 179.252 15.9C180.452 15.3 181.769 15 183.202 15C185.169 15 186.769 15.5 188.002 16.5C189.269 17.4667 189.902 18.9167 189.902 20.85V35.6L193.052 37.2V38H182.352V37.2L185.902 35.75V23.2C185.902 21.7333 185.436 20.6167 184.502 19.85C183.602 19.0833 182.419 18.7 180.952 18.7C180.052 18.7 179.052 18.85 177.952 19.15C176.886 19.45 176.036 19.8833 175.402 20.45V35.75L178.952 37.2V38H168.252Z" fill="#312A2A"/>
<path d="M207.904 38.5C204.671 38.5 202.12 37.5167 200.254 35.55C198.387 33.5833 197.454 30.9833 197.454 27.75C197.454 25.25 197.937 23.05 198.904 21.15C199.904 19.2167 201.204 17.7167 202.804 16.65C204.437 15.55 206.204 15 208.104 15C210.737 15 212.804 15.9167 214.304 17.75C215.837 19.5833 216.604 22.2167 216.604 25.65L216.354 25.9H201.404C201.437 27.4333 201.737 28.8833 202.304 30.25C202.87 31.5833 203.77 32.6667 205.004 33.5C206.27 34.3333 207.954 34.75 210.054 34.75C211.887 34.75 214.037 34.0833 216.504 32.75H216.654V33.25C215.887 34.6833 214.737 35.9167 213.204 36.95C211.704 37.9833 209.937 38.5 207.904 38.5ZM207.304 17.2C205.704 17.2 204.387 17.7667 203.354 18.9C202.354 20 201.737 21.5667 201.504 23.6H212.804C212.437 21.3333 211.787 19.7 210.854 18.7C209.954 17.7 208.77 17.2 207.304 17.2Z" fill="#312A2A"/>
<path d="M0.725708 108V106.56L7.92571 102.96V53.64L0.725708 50.04V48.6H44.7357V64.08H43.2957L37.7157 53.55H16.0257V74.88H31.3257L35.8257 67.41H37.2657V87.12H35.8257L31.3257 79.83H16.0257V103.05H40.2357L45.8157 91.62H47.2557V108H0.725708Z" fill="#312A2A"/>
<path d="M72.7566 108.9C69.9366 108.9 67.5066 108.66 65.4666 108.18C63.4266 107.7 61.3566 106.92 59.2566 105.84V95.76H60.5166L63.3966 100.71C65.2566 104.01 68.2866 105.66 72.4866 105.66C74.8866 105.66 76.7466 105.09 78.0666 103.95C79.4466 102.81 80.1367 101.25 80.1367 99.27C80.1367 97.53 79.7166 96.18 78.8766 95.22C78.0366 94.26 76.8367 93.42 75.2766 92.7C73.7766 91.92 71.9766 91.05 69.8766 90.09C66.8166 88.71 64.4466 87.21 62.7666 85.59C61.1466 83.91 60.3366 81.57 60.3366 78.57C60.3366 76.35 60.9666 74.34 62.2266 72.54C63.4866 70.74 65.0766 69.3 66.9966 68.22C68.9766 67.14 71.0166 66.6 73.1166 66.6C75.3366 66.6 77.3766 66.87 79.2366 67.41C81.0966 67.95 82.9866 68.7 84.9066 69.66V79.47H83.6466L80.6767 74.7C79.6566 73.08 78.5466 71.91 77.3466 71.19C76.1466 70.47 74.8566 70.11 73.4766 70.11C71.4366 70.11 69.7866 70.62 68.5266 71.64C67.3266 72.66 66.7266 74.07 66.7266 75.87C66.7266 77.91 67.4466 79.47 68.8866 80.55C70.3866 81.57 72.5466 82.74 75.3666 84.06C77.0466 84.9 78.7266 85.74 80.4066 86.58C82.1466 87.42 83.5566 88.62 84.6367 90.18C85.7766 91.68 86.3466 93.84 86.3466 96.66C86.3466 99.3 85.6266 101.55 84.1866 103.41C82.7466 105.21 80.9766 106.59 78.8766 107.55C76.7766 108.45 74.7366 108.9 72.7566 108.9Z" fill="#312A2A"/>
<path d="M110.725 108.9C107.905 108.9 105.475 108.66 103.435 108.18C101.395 107.7 99.3254 106.92 97.2254 105.84V95.76H98.4854L101.365 100.71C103.225 104.01 106.255 105.66 110.455 105.66C112.855 105.66 114.715 105.09 116.035 103.95C117.415 102.81 118.105 101.25 118.105 99.27C118.105 97.53 117.685 96.18 116.845 95.22C116.005 94.26 114.805 93.42 113.245 92.7C111.745 91.92 109.945 91.05 107.845 90.09C104.785 88.71 102.415 87.21 100.735 85.59C99.1154 83.91 98.3054 81.57 98.3054 78.57C98.3054 76.35 98.9354 74.34 100.195 72.54C101.455 70.74 103.045 69.3 104.965 68.22C106.945 67.14 108.985 66.6 111.085 66.6C113.305 66.6 115.345 66.87 117.205 67.41C119.065 67.95 120.955 68.7 122.875 69.66V79.47H121.615L118.645 74.7C117.625 73.08 116.515 71.91 115.315 71.19C114.115 70.47 112.825 70.11 111.445 70.11C109.405 70.11 107.755 70.62 106.495 71.64C105.295 72.66 104.695 74.07 104.695 75.87C104.695 77.91 105.415 79.47 106.855 80.55C108.355 81.57 110.515 82.74 113.335 84.06C115.015 84.9 116.695 85.74 118.375 86.58C120.115 87.42 121.525 88.62 122.605 90.18C123.745 91.68 124.315 93.84 124.315 96.66C124.315 99.3 123.595 101.55 122.155 103.41C120.715 105.21 118.945 106.59 116.845 107.55C114.745 108.45 112.705 108.9 110.725 108.9Z" fill="#312A2A"/>
<path d="M153.713 108.9C147.893 108.9 143.303 107.13 139.943 103.59C136.583 100.05 134.903 95.37 134.903 89.55C134.903 85.05 135.773 81.09 137.513 77.67C139.313 74.19 141.653 71.49 144.533 69.57C147.473 67.59 150.653 66.6 154.073 66.6C158.813 66.6 162.533 68.25 165.233 71.55C167.993 74.85 169.373 79.59 169.373 85.77L168.923 86.22H142.013C142.073 88.98 142.613 91.59 143.633 94.05C144.653 96.45 146.273 98.4 148.493 99.9C150.773 101.4 153.803 102.15 157.583 102.15C160.883 102.15 164.753 100.95 169.193 98.55H169.463V99.45C168.083 102.03 166.013 104.25 163.253 106.11C160.553 107.97 157.373 108.9 153.713 108.9ZM152.633 70.56C149.753 70.56 147.383 71.58 145.523 73.62C143.723 75.6 142.613 78.42 142.193 82.08H162.533C161.873 78 160.703 75.06 159.023 73.26C157.403 71.46 155.273 70.56 152.633 70.56Z" fill="#312A2A"/>
<path d="M178.317 108V106.56L183.987 103.68V76.86L178.587 72.18V71.55L189.747 66.6H190.287L191.097 73.26H191.547C193.827 70.98 196.017 69.3 198.117 68.22C200.277 67.14 202.647 66.6 205.227 66.6C208.767 66.6 211.647 67.5 213.867 69.3C216.147 71.04 217.287 73.65 217.287 77.13V103.68L222.957 106.56V108H203.697V106.56L210.087 103.68V81.36C210.087 78.72 209.247 76.71 207.567 75.33C205.947 73.95 203.817 73.26 201.177 73.26C199.557 73.26 197.757 73.53 195.777 74.07C193.857 74.61 192.327 75.39 191.187 76.41V103.68L197.577 106.56V108H178.317Z" fill="#312A2A"/>
<path d="M245.1 108.9C242.46 108.9 240.18 108.12 238.26 106.56C236.34 105 235.38 102.81 235.38 99.99V71.73H228V71.19L235.65 67.5L242.04 57.6H242.58V67.5H254.46V71.73H242.58V98.46C242.58 100.02 243.27 101.16 244.65 101.88C246.03 102.6 247.65 102.96 249.51 102.96C250.65 102.96 251.7 102.9 252.66 102.78C253.68 102.66 254.55 102.51 255.27 102.33H255.54V103.23C254.94 104.61 253.74 105.9 251.94 107.1C250.2 108.3 247.92 108.9 245.1 108.9Z" fill="#312A2A"/>
<path d="M272.056 55.71C270.496 55.71 269.206 55.2 268.186 54.18C267.166 53.1 266.656 51.81 266.656 50.31C266.656 48.75 267.166 47.46 268.186 46.44C269.206 45.42 270.496 44.91 272.056 44.91C273.616 44.91 274.906 45.42 275.926 46.44C276.946 47.46 277.456 48.75 277.456 50.31C277.456 51.81 276.946 53.1 275.926 54.18C274.906 55.2 273.616 55.71 272.056 55.71ZM263.056 108V106.56L268.726 103.68V76.86L263.326 72.18V71.55L275.386 66.6H275.926V103.68L281.596 106.56V108H263.056Z" fill="#312A2A"/>
<path d="M300.449 108.9C297.629 108.9 295.289 108.09 293.429 106.47C291.569 104.79 290.639 102.48 290.639 99.54C290.639 96.6 291.719 94.05 293.879 91.89C296.099 89.73 299.789 88.05 304.949 86.85L313.499 84.87V78.3C313.499 76.26 312.659 74.52 310.979 73.08C309.359 71.58 307.499 70.83 305.399 70.83C303.119 70.83 301.529 71.46 300.629 72.72C299.729 73.92 299.279 75.54 299.279 77.58V80.1L298.829 80.55H294.149C293.249 80.55 292.619 80.4 292.259 80.1C291.959 79.8 291.809 79.11 291.809 78.03C291.809 76.71 292.199 75.36 292.979 73.98C293.759 72.6 294.959 71.4 296.579 70.38C298.259 69.3 299.999 68.4 301.799 67.68C303.659 66.96 305.639 66.6 307.739 66.6C309.839 66.6 311.879 66.9 313.859 67.5C315.899 68.1 317.549 69.12 318.809 70.56C320.069 71.94 320.699 73.89 320.699 76.41V101.97C321.119 102.39 321.719 102.75 322.499 103.05C323.279 103.35 324.359 103.5 325.739 103.5H329.159L329.429 103.68V103.95C328.709 105.27 327.629 106.44 326.189 107.46C324.809 108.42 323.099 108.9 321.059 108.9C319.199 108.9 317.669 108.42 316.469 107.46C315.329 106.44 314.519 105.12 314.039 103.5H313.499C311.939 105.06 309.989 106.35 307.649 107.37C305.369 108.39 302.969 108.9 300.449 108.9ZM297.659 97.74C297.659 101.46 299.909 103.32 304.409 103.32C305.849 103.32 307.259 103.17 308.639 102.87C310.079 102.57 311.699 102.03 313.499 101.25V87.93C308.699 88.83 305.189 89.79 302.969 90.81C300.749 91.77 299.309 92.82 298.649 93.96C297.989 95.1 297.659 96.36 297.659 97.74Z" fill="#312A2A"/>
<path d="M333.963 108V106.56L339.633 103.68V50.76L334.233 46.08V45.45L346.293 40.5H346.833V103.68L352.503 106.56V108H333.963Z" fill="#312A2A"/>
<path d="M61.8269 166V165.2L65.8269 163.2V135.8L61.8269 133.8V133H76.4769C80.1436 133 83.2769 133.65 85.8769 134.95C88.4769 136.25 90.4435 138.033 91.7769 140.3C93.1435 142.567 93.8269 145.133 93.8269 148C93.8269 150.6 93.3769 153 92.4769 155.2C91.6102 157.4 90.3769 159.3 88.7769 160.9C87.1769 162.5 85.2936 163.75 83.1269 164.65C80.9936 165.55 78.6602 166 76.1269 166H61.8269ZM75.3269 135.75H70.3269V163.25H76.0769C78.7435 163.25 81.0435 162.7 82.9769 161.6C84.9436 160.467 86.4436 158.883 87.4769 156.85C88.5435 154.783 89.0769 152.35 89.0769 149.55C89.0769 146.783 88.5435 144.367 87.4769 142.3C86.4102 140.2 84.8435 138.583 82.7769 137.45C80.7435 136.317 78.2602 135.75 75.3269 135.75Z" fill="#312A2A"/>
<path d="M105.046 136.95C104.18 136.95 103.463 136.667 102.896 136.1C102.33 135.5 102.046 134.783 102.046 133.95C102.046 133.083 102.33 132.367 102.896 131.8C103.463 131.233 104.18 130.95 105.046 130.95C105.913 130.95 106.63 131.233 107.196 131.8C107.763 132.367 108.046 133.083 108.046 133.95C108.046 134.783 107.763 135.5 107.196 136.1C106.63 136.667 105.913 136.95 105.046 136.95ZM100.046 166V165.2L103.196 163.6V148.7L100.196 146.1V145.75L106.896 143H107.196V163.6L110.346 165.2V166H100.046Z" fill="#312A2A"/>
<path d="M115.72 166V165.2L118.87 163.6V145.85H114.97V143.5H118.87V141.5C118.87 140.833 119.037 139.967 119.37 138.9C119.704 137.833 120.187 136.717 120.82 135.55C121.454 134.35 122.22 133.217 123.12 132.15C124.02 131.083 125.054 130.217 126.22 129.55C127.387 128.85 128.67 128.5 130.07 128.5C130.504 128.5 130.887 128.55 131.22 128.65C131.554 128.75 131.804 128.833 131.97 128.9C132.404 129.067 132.62 129.317 132.62 129.65C132.62 129.85 132.537 130.15 132.37 130.55L131.37 133.15H131.02L130.07 132.8C129.637 132.667 129.187 132.55 128.72 132.45C128.254 132.317 127.787 132.25 127.32 132.25C125.854 132.25 124.737 132.9 123.97 134.2C123.237 135.467 122.87 137.233 122.87 139.5V143.5H135.97V141.5C135.97 140.833 136.137 139.967 136.47 138.9C136.804 137.833 137.287 136.717 137.92 135.55C138.587 134.35 139.387 133.217 140.32 132.15C141.254 131.083 142.304 130.217 143.47 129.55C144.67 128.85 145.987 128.5 147.42 128.5C147.72 128.5 148.037 128.55 148.37 128.65C148.704 128.75 148.987 128.85 149.22 128.95C150.22 129.317 150.72 129.783 150.72 130.35C150.72 130.65 150.654 130.95 150.52 131.25L149.52 133.7H149.17L147.82 133.15C146.887 132.783 145.804 132.6 144.57 132.6C142.737 132.6 141.504 133.183 140.87 134.35C140.27 135.483 139.97 137.2 139.97 139.5V143.5H146.57V145.85H139.97V163.7L143.52 165.2V166H132.82V165.2L135.97 163.6V145.85H122.87V163.7L126.42 165.2V166H115.72Z" fill="#312A2A"/>
<path d="M160.15 166.5C156.917 166.5 154.367 165.517 152.5 163.55C150.633 161.583 149.7 158.983 149.7 155.75C149.7 153.25 150.183 151.05 151.15 149.15C152.15 147.217 153.45 145.717 155.05 144.65C156.683 143.55 158.45 143 160.35 143C162.983 143 165.05 143.917 166.55 145.75C168.083 147.583 168.85 150.217 168.85 153.65L168.6 153.9H153.65C153.683 155.433 153.983 156.883 154.55 158.25C155.117 159.583 156.017 160.667 157.25 161.5C158.517 162.333 160.2 162.75 162.3 162.75C164.133 162.75 166.283 162.083 168.75 160.75H168.9V161.25C168.133 162.683 166.983 163.917 165.45 164.95C163.95 165.983 162.183 166.5 160.15 166.5ZM159.55 145.2C157.95 145.2 156.633 145.767 155.6 146.9C154.6 148 153.983 149.567 153.75 151.6H165.05C164.683 149.333 164.033 147.7 163.1 146.7C162.2 145.7 161.017 145.2 159.55 145.2Z" fill="#312A2A"/>
<path d="M174.019 166V165.2L177.169 163.6V148.7L174.169 146.1V145.75L180.369 143H180.669L181.119 147.25H181.319C182.085 146.017 182.785 145.1 183.419 144.5C184.085 143.867 184.702 143.467 185.269 143.3C185.835 143.1 186.402 143 186.969 143C187.235 143 187.535 143.05 187.869 143.15C188.235 143.25 188.535 143.35 188.769 143.45C189.135 143.617 189.469 143.817 189.769 144.05C190.102 144.283 190.269 144.55 190.269 144.85C190.269 145.15 190.202 145.45 190.069 145.75L189.069 148.2H188.719L186.819 147.45C186.452 147.283 186.085 147.183 185.719 147.15C185.385 147.117 185.052 147.1 184.719 147.1C183.319 147.1 182.135 147.817 181.169 149.25V163.6L184.719 165.2V166H174.019Z" fill="#312A2A"/>
<path d="M204.242 166.5C201.008 166.5 198.458 165.517 196.592 163.55C194.725 161.583 193.792 158.983 193.792 155.75C193.792 153.25 194.275 151.05 195.242 149.15C196.242 147.217 197.542 145.717 199.142 144.65C200.775 143.55 202.542 143 204.442 143C207.075 143 209.142 143.917 210.642 145.75C212.175 147.583 212.942 150.217 212.942 153.65L212.692 153.9H197.742C197.775 155.433 198.075 156.883 198.642 158.25C199.208 159.583 200.108 160.667 201.342 161.5C202.608 162.333 204.292 162.75 206.392 162.75C208.225 162.75 210.375 162.083 212.842 160.75H212.992V161.25C212.225 162.683 211.075 163.917 209.542 164.95C208.042 165.983 206.275 166.5 204.242 166.5ZM203.642 145.2C202.042 145.2 200.725 145.767 199.692 146.9C198.692 148 198.075 149.567 197.842 151.6H209.142C208.775 149.333 208.125 147.7 207.192 146.7C206.292 145.7 205.108 145.2 203.642 145.2Z" fill="#312A2A"/>
<path d="M217.91 166V165.2L221.06 163.6V148.7L218.06 146.1V145.75L224.26 143H224.56L225.01 146.7H225.26C226.527 145.433 227.744 144.5 228.91 143.9C230.11 143.3 231.427 143 232.86 143C234.827 143 236.427 143.5 237.66 144.5C238.927 145.467 239.56 146.917 239.56 148.85V163.6L242.71 165.2V166H232.01V165.2L235.56 163.6V151.2C235.56 149.733 235.094 148.617 234.16 147.85C233.26 147.083 232.077 146.7 230.61 146.7C229.71 146.7 228.71 146.85 227.61 147.15C226.544 147.45 225.694 147.883 225.06 148.45V163.6L228.61 165.2V166H217.91Z" fill="#312A2A"/>
<path d="M257.562 166.5C254.329 166.5 251.779 165.517 249.912 163.55C248.045 161.583 247.112 158.983 247.112 155.75C247.112 153.25 247.612 151.05 248.612 149.15C249.645 147.217 251.029 145.717 252.762 144.65C254.495 143.55 256.445 143 258.612 143C259.945 143 261.245 143.233 262.512 143.7C263.779 144.133 264.745 144.717 265.412 145.45C265.945 146.083 266.212 146.583 266.212 146.95C266.212 147.417 265.995 147.817 265.562 148.15L263.662 149.75H263.312L261.612 147.45C261.112 146.783 260.479 146.25 259.712 145.85C258.979 145.417 258.062 145.2 256.962 145.2C255.129 145.2 253.679 145.933 252.612 147.4C251.579 148.833 251.062 150.85 251.062 153.45C251.062 155.05 251.329 156.567 251.862 158C252.395 159.4 253.279 160.55 254.512 161.45C255.779 162.317 257.512 162.75 259.712 162.75C261.545 162.75 263.695 162.083 266.162 160.75H266.312V161.25C265.545 162.683 264.395 163.917 262.862 164.95C261.362 165.983 259.595 166.5 257.562 166.5Z" fill="#312A2A"/>
<path d="M281.488 166.5C278.254 166.5 275.704 165.517 273.838 163.55C271.971 161.583 271.038 158.983 271.038 155.75C271.038 153.25 271.521 151.05 272.488 149.15C273.488 147.217 274.788 145.717 276.388 144.65C278.021 143.55 279.788 143 281.688 143C284.321 143 286.388 143.917 287.888 145.75C289.421 147.583 290.188 150.217 290.188 153.65L289.938 153.9H274.988C275.021 155.433 275.321 156.883 275.888 158.25C276.454 159.583 277.354 160.667 278.588 161.5C279.854 162.333 281.538 162.75 283.638 162.75C285.471 162.75 287.621 162.083 290.088 160.75H290.238V161.25C289.471 162.683 288.321 163.917 286.788 164.95C285.288 165.983 283.521 166.5 281.488 166.5ZM280.888 145.2C279.288 145.2 277.971 145.767 276.938 146.9C275.938 148 275.321 149.567 275.088 151.6H286.388C286.021 149.333 285.371 147.7 284.438 146.7C283.538 145.7 282.354 145.2 280.888 145.2Z" fill="#312A2A"/>
</svg>
