<svg width="250" height="26" viewBox="0 0 250 26" fill="none" xmlns="http://www.w3.org/2000/svg">
<g clip-path="url(#clip0_122_54)">
<path d="M8.55476 14.8861H15.8447V11.0464H8.55476V14.8861ZM0 0.342486V25.6286H16.8105V21.7889H4.65242V4.18219H16.7124V0.342486H0Z" fill="#322A2A"/>
<path d="M47.4703 7.29351C47.4458 5.8705 47.0389 4.60668 46.2545 3.51169C45.4701 2.41187 44.3867 1.55325 43.0091 0.930983C41.6315 0.30872 40.0333 0 38.2096 0C36.3859 0 34.8024 0.30872 33.3807 0.930983C31.959 1.55325 30.8364 2.42152 30.0127 3.54063C29.1891 4.65974 28.7773 5.96698 28.7773 7.45269C28.7773 9.2616 29.3901 10.7135 30.6157 11.8037C31.8414 12.8939 33.5131 13.7091 35.626 14.2397L38.5479 14.9826C39.4696 15.2141 40.2736 15.4746 40.9648 15.764C41.656 16.0583 42.1904 16.42 42.5777 16.8494C42.9601 17.2835 43.1611 17.8286 43.166 18.4846C43.1562 19.2082 42.9356 19.8401 42.4993 20.3803C42.0629 20.9206 41.4648 21.3403 40.7001 21.6393C39.9353 21.9384 39.0479 22.0879 38.0331 22.0879C37.0183 22.0879 36.1849 21.9432 35.4054 21.6538C34.621 21.3644 33.9886 20.9302 33.5033 20.3466C33.0179 19.7629 32.7434 19.0297 32.6748 18.1518H28.0959C28.1645 19.8304 28.6057 21.2534 29.4343 22.4208C30.2579 23.5881 31.405 24.4805 32.8709 25.0883C34.3367 25.6961 36.0722 26 38.0724 26C40.0726 26 41.8865 25.6865 43.3376 25.0545C44.7887 24.4226 45.9016 23.5495 46.6712 22.4256C47.4409 21.3017 47.8233 19.9993 47.8233 18.5184C47.8233 17.4234 47.6125 16.4683 47.1958 15.6531C46.7791 14.8378 46.2104 14.1432 45.4947 13.5644C44.7789 12.9904 43.97 12.5128 43.0728 12.1317C42.1757 11.7555 41.2393 11.4516 40.2687 11.2297L37.8616 10.6364C37.337 10.5109 36.8124 10.3614 36.2928 10.1781C35.7731 9.99481 35.3025 9.77291 34.876 9.50278C34.4495 9.23265 34.1112 8.90946 33.8661 8.52356C33.6209 8.13766 33.4984 7.67941 33.4984 7.15362C33.5082 6.52171 33.6945 5.95733 34.0622 5.46048C34.4298 4.96846 34.9593 4.57774 35.6555 4.28831C36.3516 3.99889 37.1801 3.85417 38.1508 3.85417C39.5333 3.85417 40.6559 4.15325 41.5188 4.75621C42.3865 5.35918 42.8767 6.19852 42.9944 7.27421H47.4752L47.4703 7.29351Z" fill="#322A2A"/>
<path d="M77.9635 7.29351C77.939 5.8705 77.5321 4.60668 76.7477 3.51169C75.9633 2.41187 74.8799 1.55325 73.5023 0.930983C72.1247 0.30872 70.5265 0 68.7028 0C66.8791 0 65.2956 0.30872 63.8739 0.930983C62.4522 1.55325 61.3295 2.42152 60.5059 3.54063C59.6823 4.65974 59.2705 5.96698 59.2705 7.45269C59.2705 9.2616 59.8833 10.7135 61.1089 11.8037C62.3345 12.8939 64.0063 13.7091 66.1192 14.2397L69.0411 14.9826C69.9627 15.2141 70.7667 15.4746 71.458 15.764C72.1492 16.0583 72.6836 16.42 73.0709 16.8494C73.4582 17.2835 73.6543 17.8286 73.6592 18.4846C73.6494 19.2082 73.4288 19.8401 72.9924 20.3803C72.5561 20.9206 71.958 21.3403 71.1933 21.6393C70.4285 21.9384 69.5411 22.0879 68.5263 22.0879C67.5115 22.0879 66.6781 21.9432 65.8986 21.6538C65.1142 21.3644 64.4818 20.9302 63.9965 20.3466C63.5111 19.7629 63.2366 19.0297 63.168 18.1518H58.5891C58.6577 19.8304 59.0989 21.2534 59.9274 22.4208C60.7511 23.5881 61.8982 24.4805 63.3641 25.0883C64.8299 25.6961 66.5653 26 68.5655 26C70.5657 26 72.3796 25.6865 73.8308 25.0545C75.2819 24.4226 76.3947 23.5495 77.1644 22.4256C77.9341 21.3017 78.3165 19.9993 78.3165 18.5184C78.3165 17.4234 78.1057 16.4683 77.689 15.6531C77.2723 14.8378 76.7036 14.1432 75.9878 13.5644C75.2721 12.9904 74.4632 12.5128 73.566 12.1317C72.6689 11.7555 71.7325 11.4516 70.7618 11.2297L68.3547 10.6364C67.8302 10.5109 67.3056 10.3614 66.786 10.1781C66.2663 9.99481 65.7957 9.77291 65.3691 9.50278C64.9426 9.23265 64.6044 8.90946 64.3592 8.52356C64.1141 8.13766 63.9916 7.67941 63.9916 7.15362C64.0014 6.52171 64.1877 5.95733 64.5553 5.46048C64.923 4.96846 65.4525 4.57774 66.1486 4.28831C66.8448 3.99889 67.6733 3.85417 68.644 3.85417C70.0265 3.85417 71.1491 4.15325 72.012 4.75621C72.8797 5.35918 73.3699 6.19852 73.4876 7.27421H77.9684L77.9635 7.29351Z" fill="#322A2A"/>
<path d="M90.0088 0.342486V25.6237H106.824V21.784H94.6661V14.8861H105.858V11.0464H94.6661V4.18219H106.721V0.342486H90.0088Z" fill="#322A2A"/>
<path d="M135.523 0.342486V17.5777H135.298L123.198 0.342486H119.036V25.6237H123.689V8.40297H123.904L136.013 25.6237H140.151V0.342486H135.523Z" fill="#322A2A"/>
<path d="M151.637 0.342486V4.18219H159.579V25.6237H164.193V4.18219H172.139V0.342486H151.637Z" fill="#322A2A"/>
<path d="M188.288 0.342486H183.636V25.6286H188.288V0.342486Z" fill="#322A2A"/>
<path d="M208.28 0.342486L199.235 25.6237H204.201L211.055 5.52801H211.251L218.119 25.6237H223.086L214.026 0.342486H208.28Z" fill="#322A2A"/>
<path d="M234.028 0.342486V25.6237H250V21.784H238.685V0.342486H234.028Z" fill="#322A2A"/>
</g>
<defs>
<clipPath id="clip0_122_54">
<rect width="250" height="26" fill="white"/>
</clipPath>
</defs>
</svg>
