<svg width="164" height="18" viewBox="0 0 164 18" fill="none" xmlns="http://www.w3.org/2000/svg">
<path d="M5.61192 10.3058H10.3941V7.64749H5.61192V10.3058ZM0 0.237106V17.7429H11.0277V15.0846H3.05199V2.89536H10.9633V0.237106H0Z" fill="#322A2A"/>
<path d="M31.1405 5.04935C31.1245 4.06419 30.8575 3.18924 30.343 2.43117C29.8284 1.66976 29.1177 1.07532 28.214 0.644527C27.3103 0.213729 26.2619 0 25.0655 0C23.8692 0 22.8304 0.213729 21.8978 0.644527C20.9651 1.07532 20.2286 1.67644 19.6884 2.45121C19.1481 3.22597 18.8779 4.13098 18.8779 5.15955C18.8779 6.41187 19.2799 7.41707 20.0839 8.1718C20.8879 8.92653 21.9846 9.49091 23.3707 9.85826L25.2874 10.3725C25.892 10.5328 26.4195 10.7132 26.8729 10.9135C27.3264 11.1173 27.6769 11.3677 27.931 11.6649C28.1818 11.9655 28.3137 12.3429 28.3169 12.797C28.3105 13.298 28.1657 13.7354 27.8795 14.1095C27.5933 14.4835 27.2009 14.774 26.6992 14.9811C26.1975 15.1881 25.6155 15.2917 24.9497 15.2917C24.284 15.2917 23.7373 15.1915 23.226 14.9911C22.7114 14.7907 22.2965 14.4902 21.9782 14.0861C21.6598 13.682 21.4797 13.1744 21.4346 12.5666H18.4309C18.4759 13.7288 18.7654 14.7139 19.3089 15.5221C19.8492 16.3302 20.6017 16.9481 21.5633 17.3688C22.5249 17.7896 23.6633 18 24.9755 18C26.2876 18 27.4775 17.7829 28.4295 17.3455C29.3814 16.908 30.1114 16.3035 30.6163 15.5254C31.1212 14.7473 31.3721 13.8456 31.3721 12.8204C31.3721 12.0623 31.2338 11.4011 30.9604 10.8367C30.6871 10.2724 30.314 9.79146 29.8445 9.39072C29.375 8.99332 28.8443 8.66271 28.2558 8.39889C27.6673 8.1384 27.053 7.92801 26.4162 7.7744L24.8372 7.36364C24.4931 7.27681 24.149 7.17328 23.8081 7.04638C23.4672 6.91948 23.1584 6.76586 22.8786 6.57885C22.5988 6.39184 22.3769 6.16809 22.2161 5.90093C22.0553 5.63377 21.9749 5.31651 21.9749 4.9525C21.9814 4.51503 22.1036 4.1243 22.3448 3.78033C22.586 3.4397 22.9333 3.1692 23.39 2.96883C23.8467 2.76846 24.3902 2.66827 25.0269 2.66827C25.9338 2.66827 26.6703 2.87532 27.2363 3.29276C27.8055 3.7102 28.1271 4.29128 28.2043 5.03599H31.1438L31.1405 5.04935Z" fill="#322A2A"/>
<path d="M51.1441 5.04935C51.128 4.06419 50.8611 3.18924 50.3465 2.43117C49.8319 1.66976 49.1212 1.07532 48.2175 0.644527C47.3138 0.213729 46.2654 0 45.069 0C43.8727 0 42.8339 0.213729 41.9013 0.644527C40.9686 1.07532 40.2322 1.67644 39.6919 2.45121C39.1516 3.22597 38.8815 4.13098 38.8815 5.15955C38.8815 6.41187 39.2835 7.41707 40.0875 8.1718C40.8915 8.92653 41.9881 9.49091 43.3742 9.85826L45.2909 10.3725C45.8956 10.5328 46.423 10.7132 46.8764 10.9135C47.3299 11.1173 47.6804 11.3677 47.9345 11.6649C48.1886 11.9655 48.3172 12.3429 48.3204 12.797C48.314 13.298 48.1693 13.7354 47.883 14.1095C47.5968 14.4835 47.2045 14.774 46.7028 14.9811C46.2011 15.1881 45.619 15.2917 44.9533 15.2917C44.2876 15.2917 43.7408 15.1915 43.2295 14.9911C42.7149 14.7907 42.3001 14.4902 41.9817 14.0861C41.6633 13.682 41.4832 13.1744 41.4382 12.5666H38.4344C38.4795 13.7288 38.7689 14.7139 39.3124 15.5221C39.8527 16.3302 40.6052 16.9481 41.5668 17.3688C42.5284 17.7896 43.6669 18 44.979 18C46.2911 18 47.481 17.7829 48.433 17.3455C49.3849 16.908 50.1149 16.3035 50.6199 15.5254C51.1248 14.7473 51.3756 13.8456 51.3756 12.8204C51.3756 12.0623 51.2373 11.4011 50.964 10.8367C50.6906 10.2724 50.3176 9.79146 49.848 9.39072C49.3785 8.99332 48.8478 8.66271 48.2593 8.39889C47.6708 8.1384 47.0565 7.92801 46.4198 7.7744L44.8407 7.36364C44.4966 7.27681 44.1525 7.17328 43.8116 7.04638C43.4707 6.91948 43.162 6.76586 42.8822 6.57885C42.6024 6.39184 42.3805 6.16809 42.2197 5.90093C42.0589 5.63377 41.9785 5.31651 41.9785 4.9525C41.9849 4.51503 42.1071 4.1243 42.3483 3.78033C42.5895 3.4397 42.9368 3.1692 43.3935 2.96883C43.8502 2.76846 44.3937 2.66827 45.0305 2.66827C45.9374 2.66827 46.6738 2.87532 47.2398 3.29276C47.8091 3.7102 48.1307 4.29128 48.2079 5.03599H51.1473L51.1441 5.04935Z" fill="#322A2A"/>
<path d="M59.0458 0.237106V17.7395H70.0767V15.0813H62.101V10.3058H69.4431V7.64749H62.101V2.89536H70.0091V0.237106H59.0458Z" fill="#322A2A"/>
<path d="M88.9031 0.237106V12.1692H88.7552L80.8181 0.237106H78.0877V17.7395H81.1397V5.81744H81.2812L89.2247 17.7395H91.939V0.237106H88.9031Z" fill="#322A2A"/>
<path d="M99.4741 0.237106V2.89536H104.684V17.7395H107.71V2.89536H112.923V0.237106H99.4741Z" fill="#322A2A"/>
<path d="M123.517 0.237106H120.465V17.7429H123.517V0.237106Z" fill="#322A2A"/>
<path d="M136.632 0.237106L130.698 17.7395H133.956L138.452 3.82709H138.581L143.086 17.7395H146.344L140.401 0.237106H136.632Z" fill="#322A2A"/>
<path d="M153.522 0.237106V17.7395H164V15.0813H156.577V0.237106H153.522Z" fill="#322A2A"/>
</svg>
